# xmcd
#
# Track frame offsets:
#	150
#	14522
#	29417
#	43360
#	57375
#	72347
#	87832
#	102754
#	114291
#	128706
#	143393
#	156693
#
# Disc length: 2268 seconds
#
# Revision: 0
# Processed by: cddbd v1.5.1PL0 Copyright (c) Steve Scherf et al.
# Submitted via: EasyCDDAExtractor 8.0.1.1
#
DISCID=a408da0c
DTITLE=Doris Day - A Sentimental Journey
DYEAR=2002
DGENRE=Acid
TTITLE0=Sentimental Journey
TTITLE1=My Dreams Are Getting Better All The Time
TTITLE2=I'll Always Be With You
TTITLE3=Day By Day
TTITLE4=It Could Happen To You
TTITLE5=The Last Time I Saw You
TTITLE6=We'll Be Together Again
TTITLE7=I Got The Sun In The Morning
TTITLE8=Sooner Or Later
TTITLE9=The Whole World Is Singing My Song
TTITLE10=My Number One Dream Came True
TTITLE11=Till The End Of Time
EXTD=
EXTT0=
EXTT1=
EXTT2=
EXTT3=
EXTT4=
EXTT5=
EXTT6=
EXTT7=
EXTT8=
EXTT9=
EXTT10=
EXTT11=
PLAYORDER=
